G75*
%MOIN*%
%OFA0B0*%
%FSLAX25Y25*%
%IPPOS*%
%LPD*%
%AMOC8*
5,1,8,0,0,1.08239X$1,22.5*
%
%ADD10C,0.00000*%
D10*
X0014449Y0032555D02*
X0299883Y0032555D01*
X0300073Y0032557D01*
X0300263Y0032564D01*
X0300453Y0032576D01*
X0300643Y0032592D01*
X0300832Y0032612D01*
X0301021Y0032638D01*
X0301209Y0032667D01*
X0301396Y0032702D01*
X0301582Y0032741D01*
X0301767Y0032784D01*
X0301952Y0032832D01*
X0302135Y0032884D01*
X0302316Y0032940D01*
X0302496Y0033001D01*
X0302675Y0033067D01*
X0302852Y0033136D01*
X0303028Y0033210D01*
X0303201Y0033288D01*
X0303373Y0033371D01*
X0303542Y0033457D01*
X0303710Y0033547D01*
X0303875Y0033642D01*
X0304038Y0033740D01*
X0304198Y0033843D01*
X0304356Y0033949D01*
X0304511Y0034059D01*
X0304664Y0034172D01*
X0304814Y0034290D01*
X0304960Y0034411D01*
X0305104Y0034535D01*
X0305245Y0034663D01*
X0305383Y0034794D01*
X0305518Y0034929D01*
X0305649Y0035067D01*
X0305777Y0035208D01*
X0305901Y0035352D01*
X0306022Y0035498D01*
X0306140Y0035648D01*
X0306253Y0035801D01*
X0306363Y0035956D01*
X0306469Y0036114D01*
X0306572Y0036274D01*
X0306670Y0036437D01*
X0306765Y0036602D01*
X0306855Y0036770D01*
X0306941Y0036939D01*
X0307024Y0037111D01*
X0307102Y0037284D01*
X0307176Y0037460D01*
X0307245Y0037637D01*
X0307311Y0037816D01*
X0307372Y0037996D01*
X0307428Y0038177D01*
X0307480Y0038360D01*
X0307528Y0038545D01*
X0307571Y0038730D01*
X0307610Y0038916D01*
X0307645Y0039103D01*
X0307674Y0039291D01*
X0307700Y0039480D01*
X0307720Y0039669D01*
X0307736Y0039859D01*
X0307748Y0040049D01*
X0307755Y0040239D01*
X0307757Y0040429D01*
X0307757Y0309327D01*
X0307755Y0309517D01*
X0307748Y0309707D01*
X0307736Y0309897D01*
X0307720Y0310087D01*
X0307700Y0310276D01*
X0307674Y0310465D01*
X0307645Y0310653D01*
X0307610Y0310840D01*
X0307571Y0311026D01*
X0307528Y0311211D01*
X0307480Y0311396D01*
X0307428Y0311579D01*
X0307372Y0311760D01*
X0307311Y0311940D01*
X0307245Y0312119D01*
X0307176Y0312296D01*
X0307102Y0312472D01*
X0307024Y0312645D01*
X0306941Y0312817D01*
X0306855Y0312986D01*
X0306765Y0313154D01*
X0306670Y0313319D01*
X0306572Y0313482D01*
X0306469Y0313642D01*
X0306363Y0313800D01*
X0306253Y0313955D01*
X0306140Y0314108D01*
X0306022Y0314258D01*
X0305901Y0314404D01*
X0305777Y0314548D01*
X0305649Y0314689D01*
X0305518Y0314827D01*
X0305383Y0314962D01*
X0305245Y0315093D01*
X0305104Y0315221D01*
X0304960Y0315345D01*
X0304814Y0315466D01*
X0304664Y0315584D01*
X0304511Y0315697D01*
X0304356Y0315807D01*
X0304198Y0315913D01*
X0304038Y0316016D01*
X0303875Y0316114D01*
X0303710Y0316209D01*
X0303542Y0316299D01*
X0303373Y0316385D01*
X0303201Y0316468D01*
X0303028Y0316546D01*
X0302852Y0316620D01*
X0302675Y0316689D01*
X0302496Y0316755D01*
X0302316Y0316816D01*
X0302135Y0316872D01*
X0301952Y0316924D01*
X0301767Y0316972D01*
X0301582Y0317015D01*
X0301396Y0317054D01*
X0301209Y0317089D01*
X0301021Y0317118D01*
X0300832Y0317144D01*
X0300643Y0317164D01*
X0300453Y0317180D01*
X0300263Y0317192D01*
X0300073Y0317199D01*
X0299883Y0317201D01*
X0196142Y0317201D01*
X0196065Y0317199D01*
X0195988Y0317193D01*
X0195911Y0317184D01*
X0195835Y0317171D01*
X0195759Y0317154D01*
X0195685Y0317133D01*
X0195611Y0317109D01*
X0195539Y0317081D01*
X0195469Y0317050D01*
X0195400Y0317015D01*
X0195332Y0316977D01*
X0195267Y0316936D01*
X0195204Y0316891D01*
X0195143Y0316843D01*
X0195084Y0316793D01*
X0195028Y0316740D01*
X0194975Y0316684D01*
X0194925Y0316625D01*
X0194877Y0316564D01*
X0194832Y0316501D01*
X0194791Y0316436D01*
X0194753Y0316368D01*
X0194718Y0316299D01*
X0194687Y0316229D01*
X0194659Y0316157D01*
X0194635Y0316083D01*
X0194614Y0316009D01*
X0194597Y0315933D01*
X0194584Y0315857D01*
X0194575Y0315780D01*
X0194569Y0315703D01*
X0194567Y0315626D01*
X0194568Y0315626D02*
X0194568Y0313657D01*
X0194567Y0313657D02*
X0194565Y0313584D01*
X0194559Y0313511D01*
X0194550Y0313438D01*
X0194536Y0313366D01*
X0194519Y0313295D01*
X0194498Y0313225D01*
X0194474Y0313156D01*
X0194446Y0313089D01*
X0194414Y0313023D01*
X0194379Y0312958D01*
X0194341Y0312896D01*
X0194299Y0312836D01*
X0194255Y0312778D01*
X0194207Y0312722D01*
X0194157Y0312669D01*
X0194104Y0312619D01*
X0194048Y0312572D01*
X0193990Y0312527D01*
X0193929Y0312486D01*
X0193867Y0312448D01*
X0193802Y0312413D01*
X0193736Y0312382D01*
X0193669Y0312354D01*
X0193600Y0312330D01*
X0193529Y0312309D01*
X0193458Y0312292D01*
X0193386Y0312279D01*
X0193387Y0312280D02*
X0152442Y0312280D01*
X0152442Y0312279D02*
X0152370Y0312292D01*
X0152299Y0312309D01*
X0152228Y0312330D01*
X0152159Y0312354D01*
X0152092Y0312382D01*
X0152026Y0312413D01*
X0151961Y0312448D01*
X0151899Y0312486D01*
X0151838Y0312527D01*
X0151780Y0312572D01*
X0151724Y0312619D01*
X0151671Y0312669D01*
X0151621Y0312722D01*
X0151573Y0312778D01*
X0151529Y0312836D01*
X0151487Y0312896D01*
X0151449Y0312958D01*
X0151414Y0313023D01*
X0151382Y0313089D01*
X0151354Y0313156D01*
X0151330Y0313225D01*
X0151309Y0313295D01*
X0151292Y0313366D01*
X0151278Y0313438D01*
X0151269Y0313511D01*
X0151263Y0313584D01*
X0151261Y0313657D01*
X0151261Y0315626D01*
X0151259Y0315703D01*
X0151253Y0315780D01*
X0151244Y0315857D01*
X0151231Y0315933D01*
X0151214Y0316009D01*
X0151193Y0316083D01*
X0151169Y0316157D01*
X0151141Y0316229D01*
X0151110Y0316299D01*
X0151075Y0316368D01*
X0151037Y0316436D01*
X0150996Y0316501D01*
X0150951Y0316564D01*
X0150903Y0316625D01*
X0150853Y0316684D01*
X0150800Y0316740D01*
X0150744Y0316793D01*
X0150685Y0316843D01*
X0150624Y0316891D01*
X0150561Y0316936D01*
X0150496Y0316977D01*
X0150428Y0317015D01*
X0150359Y0317050D01*
X0150289Y0317081D01*
X0150217Y0317109D01*
X0150143Y0317133D01*
X0150069Y0317154D01*
X0149993Y0317171D01*
X0149917Y0317184D01*
X0149840Y0317193D01*
X0149763Y0317199D01*
X0149686Y0317201D01*
X0019557Y0317022D01*
X0006575Y0304022D01*
X0006575Y0040429D01*
X0006577Y0040239D01*
X0006584Y0040049D01*
X0006596Y0039859D01*
X0006612Y0039669D01*
X0006632Y0039480D01*
X0006658Y0039291D01*
X0006687Y0039103D01*
X0006722Y0038916D01*
X0006761Y0038730D01*
X0006804Y0038545D01*
X0006852Y0038360D01*
X0006904Y0038177D01*
X0006960Y0037996D01*
X0007021Y0037816D01*
X0007087Y0037637D01*
X0007156Y0037460D01*
X0007230Y0037284D01*
X0007308Y0037111D01*
X0007391Y0036939D01*
X0007477Y0036770D01*
X0007567Y0036602D01*
X0007662Y0036437D01*
X0007760Y0036274D01*
X0007863Y0036114D01*
X0007969Y0035956D01*
X0008079Y0035801D01*
X0008192Y0035648D01*
X0008310Y0035498D01*
X0008431Y0035352D01*
X0008555Y0035208D01*
X0008683Y0035067D01*
X0008814Y0034929D01*
X0008949Y0034794D01*
X0009087Y0034663D01*
X0009228Y0034535D01*
X0009372Y0034411D01*
X0009518Y0034290D01*
X0009668Y0034172D01*
X0009821Y0034059D01*
X0009976Y0033949D01*
X0010134Y0033843D01*
X0010294Y0033740D01*
X0010457Y0033642D01*
X0010622Y0033547D01*
X0010790Y0033457D01*
X0010959Y0033371D01*
X0011131Y0033288D01*
X0011304Y0033210D01*
X0011480Y0033136D01*
X0011657Y0033067D01*
X0011836Y0033001D01*
X0012016Y0032940D01*
X0012197Y0032884D01*
X0012380Y0032832D01*
X0012565Y0032784D01*
X0012750Y0032741D01*
X0012936Y0032702D01*
X0013123Y0032667D01*
X0013311Y0032638D01*
X0013500Y0032612D01*
X0013689Y0032592D01*
X0013879Y0032576D01*
X0014069Y0032564D01*
X0014259Y0032557D01*
X0014449Y0032555D01*
X0024883Y0123106D02*
X0024885Y0123221D01*
X0024891Y0123337D01*
X0024901Y0123452D01*
X0024915Y0123567D01*
X0024933Y0123681D01*
X0024955Y0123794D01*
X0024980Y0123907D01*
X0025010Y0124018D01*
X0025043Y0124129D01*
X0025080Y0124238D01*
X0025121Y0124346D01*
X0025166Y0124453D01*
X0025214Y0124558D01*
X0025266Y0124661D01*
X0025322Y0124762D01*
X0025381Y0124862D01*
X0025443Y0124959D01*
X0025509Y0125054D01*
X0025577Y0125147D01*
X0025649Y0125237D01*
X0025724Y0125325D01*
X0025803Y0125410D01*
X0025884Y0125492D01*
X0025967Y0125572D01*
X0026054Y0125648D01*
X0026143Y0125722D01*
X0026234Y0125792D01*
X0026328Y0125860D01*
X0026424Y0125924D01*
X0026523Y0125984D01*
X0026623Y0126041D01*
X0026725Y0126095D01*
X0026829Y0126145D01*
X0026935Y0126192D01*
X0027042Y0126235D01*
X0027151Y0126274D01*
X0027261Y0126309D01*
X0027372Y0126340D01*
X0027484Y0126368D01*
X0027597Y0126392D01*
X0027711Y0126412D01*
X0027826Y0126428D01*
X0027941Y0126440D01*
X0028056Y0126448D01*
X0028171Y0126452D01*
X0028287Y0126452D01*
X0028402Y0126448D01*
X0028517Y0126440D01*
X0028632Y0126428D01*
X0028747Y0126412D01*
X0028861Y0126392D01*
X0028974Y0126368D01*
X0029086Y0126340D01*
X0029197Y0126309D01*
X0029307Y0126274D01*
X0029416Y0126235D01*
X0029523Y0126192D01*
X0029629Y0126145D01*
X0029733Y0126095D01*
X0029835Y0126041D01*
X0029935Y0125984D01*
X0030034Y0125924D01*
X0030130Y0125860D01*
X0030224Y0125792D01*
X0030315Y0125722D01*
X0030404Y0125648D01*
X0030491Y0125572D01*
X0030574Y0125492D01*
X0030655Y0125410D01*
X0030734Y0125325D01*
X0030809Y0125237D01*
X0030881Y0125147D01*
X0030949Y0125054D01*
X0031015Y0124959D01*
X0031077Y0124862D01*
X0031136Y0124762D01*
X0031192Y0124661D01*
X0031244Y0124558D01*
X0031292Y0124453D01*
X0031337Y0124346D01*
X0031378Y0124238D01*
X0031415Y0124129D01*
X0031448Y0124018D01*
X0031478Y0123907D01*
X0031503Y0123794D01*
X0031525Y0123681D01*
X0031543Y0123567D01*
X0031557Y0123452D01*
X0031567Y0123337D01*
X0031573Y0123221D01*
X0031575Y0123106D01*
X0031573Y0122991D01*
X0031567Y0122875D01*
X0031557Y0122760D01*
X0031543Y0122645D01*
X0031525Y0122531D01*
X0031503Y0122418D01*
X0031478Y0122305D01*
X0031448Y0122194D01*
X0031415Y0122083D01*
X0031378Y0121974D01*
X0031337Y0121866D01*
X0031292Y0121759D01*
X0031244Y0121654D01*
X0031192Y0121551D01*
X0031136Y0121450D01*
X0031077Y0121350D01*
X0031015Y0121253D01*
X0030949Y0121158D01*
X0030881Y0121065D01*
X0030809Y0120975D01*
X0030734Y0120887D01*
X0030655Y0120802D01*
X0030574Y0120720D01*
X0030491Y0120640D01*
X0030404Y0120564D01*
X0030315Y0120490D01*
X0030224Y0120420D01*
X0030130Y0120352D01*
X0030034Y0120288D01*
X0029935Y0120228D01*
X0029835Y0120171D01*
X0029733Y0120117D01*
X0029629Y0120067D01*
X0029523Y0120020D01*
X0029416Y0119977D01*
X0029307Y0119938D01*
X0029197Y0119903D01*
X0029086Y0119872D01*
X0028974Y0119844D01*
X0028861Y0119820D01*
X0028747Y0119800D01*
X0028632Y0119784D01*
X0028517Y0119772D01*
X0028402Y0119764D01*
X0028287Y0119760D01*
X0028171Y0119760D01*
X0028056Y0119764D01*
X0027941Y0119772D01*
X0027826Y0119784D01*
X0027711Y0119800D01*
X0027597Y0119820D01*
X0027484Y0119844D01*
X0027372Y0119872D01*
X0027261Y0119903D01*
X0027151Y0119938D01*
X0027042Y0119977D01*
X0026935Y0120020D01*
X0026829Y0120067D01*
X0026725Y0120117D01*
X0026623Y0120171D01*
X0026523Y0120228D01*
X0026424Y0120288D01*
X0026328Y0120352D01*
X0026234Y0120420D01*
X0026143Y0120490D01*
X0026054Y0120564D01*
X0025967Y0120640D01*
X0025884Y0120720D01*
X0025803Y0120802D01*
X0025724Y0120887D01*
X0025649Y0120975D01*
X0025577Y0121065D01*
X0025509Y0121158D01*
X0025443Y0121253D01*
X0025381Y0121350D01*
X0025322Y0121450D01*
X0025266Y0121551D01*
X0025214Y0121654D01*
X0025166Y0121759D01*
X0025121Y0121866D01*
X0025080Y0121974D01*
X0025043Y0122083D01*
X0025010Y0122194D01*
X0024980Y0122305D01*
X0024955Y0122418D01*
X0024933Y0122531D01*
X0024915Y0122645D01*
X0024901Y0122760D01*
X0024891Y0122875D01*
X0024885Y0122991D01*
X0024883Y0123106D01*
X0052442Y0123106D02*
X0052444Y0123221D01*
X0052450Y0123337D01*
X0052460Y0123452D01*
X0052474Y0123567D01*
X0052492Y0123681D01*
X0052514Y0123794D01*
X0052539Y0123907D01*
X0052569Y0124018D01*
X0052602Y0124129D01*
X0052639Y0124238D01*
X0052680Y0124346D01*
X0052725Y0124453D01*
X0052773Y0124558D01*
X0052825Y0124661D01*
X0052881Y0124762D01*
X0052940Y0124862D01*
X0053002Y0124959D01*
X0053068Y0125054D01*
X0053136Y0125147D01*
X0053208Y0125237D01*
X0053283Y0125325D01*
X0053362Y0125410D01*
X0053443Y0125492D01*
X0053526Y0125572D01*
X0053613Y0125648D01*
X0053702Y0125722D01*
X0053793Y0125792D01*
X0053887Y0125860D01*
X0053983Y0125924D01*
X0054082Y0125984D01*
X0054182Y0126041D01*
X0054284Y0126095D01*
X0054388Y0126145D01*
X0054494Y0126192D01*
X0054601Y0126235D01*
X0054710Y0126274D01*
X0054820Y0126309D01*
X0054931Y0126340D01*
X0055043Y0126368D01*
X0055156Y0126392D01*
X0055270Y0126412D01*
X0055385Y0126428D01*
X0055500Y0126440D01*
X0055615Y0126448D01*
X0055730Y0126452D01*
X0055846Y0126452D01*
X0055961Y0126448D01*
X0056076Y0126440D01*
X0056191Y0126428D01*
X0056306Y0126412D01*
X0056420Y0126392D01*
X0056533Y0126368D01*
X0056645Y0126340D01*
X0056756Y0126309D01*
X0056866Y0126274D01*
X0056975Y0126235D01*
X0057082Y0126192D01*
X0057188Y0126145D01*
X0057292Y0126095D01*
X0057394Y0126041D01*
X0057494Y0125984D01*
X0057593Y0125924D01*
X0057689Y0125860D01*
X0057783Y0125792D01*
X0057874Y0125722D01*
X0057963Y0125648D01*
X0058050Y0125572D01*
X0058133Y0125492D01*
X0058214Y0125410D01*
X0058293Y0125325D01*
X0058368Y0125237D01*
X0058440Y0125147D01*
X0058508Y0125054D01*
X0058574Y0124959D01*
X0058636Y0124862D01*
X0058695Y0124762D01*
X0058751Y0124661D01*
X0058803Y0124558D01*
X0058851Y0124453D01*
X0058896Y0124346D01*
X0058937Y0124238D01*
X0058974Y0124129D01*
X0059007Y0124018D01*
X0059037Y0123907D01*
X0059062Y0123794D01*
X0059084Y0123681D01*
X0059102Y0123567D01*
X0059116Y0123452D01*
X0059126Y0123337D01*
X0059132Y0123221D01*
X0059134Y0123106D01*
X0059132Y0122991D01*
X0059126Y0122875D01*
X0059116Y0122760D01*
X0059102Y0122645D01*
X0059084Y0122531D01*
X0059062Y0122418D01*
X0059037Y0122305D01*
X0059007Y0122194D01*
X0058974Y0122083D01*
X0058937Y0121974D01*
X0058896Y0121866D01*
X0058851Y0121759D01*
X0058803Y0121654D01*
X0058751Y0121551D01*
X0058695Y0121450D01*
X0058636Y0121350D01*
X0058574Y0121253D01*
X0058508Y0121158D01*
X0058440Y0121065D01*
X0058368Y0120975D01*
X0058293Y0120887D01*
X0058214Y0120802D01*
X0058133Y0120720D01*
X0058050Y0120640D01*
X0057963Y0120564D01*
X0057874Y0120490D01*
X0057783Y0120420D01*
X0057689Y0120352D01*
X0057593Y0120288D01*
X0057494Y0120228D01*
X0057394Y0120171D01*
X0057292Y0120117D01*
X0057188Y0120067D01*
X0057082Y0120020D01*
X0056975Y0119977D01*
X0056866Y0119938D01*
X0056756Y0119903D01*
X0056645Y0119872D01*
X0056533Y0119844D01*
X0056420Y0119820D01*
X0056306Y0119800D01*
X0056191Y0119784D01*
X0056076Y0119772D01*
X0055961Y0119764D01*
X0055846Y0119760D01*
X0055730Y0119760D01*
X0055615Y0119764D01*
X0055500Y0119772D01*
X0055385Y0119784D01*
X0055270Y0119800D01*
X0055156Y0119820D01*
X0055043Y0119844D01*
X0054931Y0119872D01*
X0054820Y0119903D01*
X0054710Y0119938D01*
X0054601Y0119977D01*
X0054494Y0120020D01*
X0054388Y0120067D01*
X0054284Y0120117D01*
X0054182Y0120171D01*
X0054082Y0120228D01*
X0053983Y0120288D01*
X0053887Y0120352D01*
X0053793Y0120420D01*
X0053702Y0120490D01*
X0053613Y0120564D01*
X0053526Y0120640D01*
X0053443Y0120720D01*
X0053362Y0120802D01*
X0053283Y0120887D01*
X0053208Y0120975D01*
X0053136Y0121065D01*
X0053068Y0121158D01*
X0053002Y0121253D01*
X0052940Y0121350D01*
X0052881Y0121450D01*
X0052825Y0121551D01*
X0052773Y0121654D01*
X0052725Y0121759D01*
X0052680Y0121866D01*
X0052639Y0121974D01*
X0052602Y0122083D01*
X0052569Y0122194D01*
X0052539Y0122305D01*
X0052514Y0122418D01*
X0052492Y0122531D01*
X0052474Y0122645D01*
X0052460Y0122760D01*
X0052450Y0122875D01*
X0052444Y0122991D01*
X0052442Y0123106D01*
X0121761Y0133705D02*
X0121761Y0302996D01*
X0224123Y0302996D01*
X0224123Y0133705D01*
X0121761Y0133705D01*
M02*
