%
M48
M72
T01C0.0100
T02C0.0120
T03C0.0150
T04C0.0250
T05C0.0400
T06C0.0650
T07C0.0669
T08C0.0910
T09C0.1180
T10C0.1181
%
T01
X5508Y13749
X1808Y15999
X3858Y17349
X4108Y17706
X4833Y18056
X4508Y19156
X4258Y19381
X4333Y20303
X4858Y20256
X5208Y20006
X6458Y20906
X6958Y20856
X7041Y19997
X7299Y19739
X7533Y19331
X6908Y21806
X4958Y21706
X4258Y21356
X3208Y21406
X2350Y22070
X3108Y20206
X2108Y19456
X2508Y18906
X2058Y18806
X7308Y25474
X7308Y25824
X12078Y31022
X16408Y31006
X20633Y31424
X20983Y31424
X27190Y23134
X26458Y22556
X28408Y23059
X28965Y23227
X29201Y21051
X29201Y19102
X29201Y17173
X29181Y14988
X23486Y13049
X23147Y13049
X25528Y7679
T02
X28041Y10764
X27516Y11656
X29249Y11839
X29557Y10905
X28689Y15795
X28689Y17763
X28689Y19732
X26208Y26649
X26158Y28906
X23208Y29806
X22558Y30806
X22558Y31456
X22008Y31456
X21508Y31456
X19837Y31472
X19185Y30972
X13258Y9089
T03
X11608Y5856
X8598Y8589
X8658Y9589
X7718Y9102
X7154Y10933
X7350Y14358
X7350Y15972
X4004Y13689
X3413Y10933
X1937Y10933
X1658Y6406
X6108Y4506
X17998Y7899
X18498Y7899
X18610Y8925
X20815Y9909
X21642Y9437
X22311Y9594
X22134Y8846
X20588Y6515
X20539Y5174
X20835Y4240
X24083Y5174
X24588Y6015
X24516Y4279
X26169Y7626
X27036Y8689
X28847Y9358
X29240Y6523
X28689Y21799
X26740Y26779
X26740Y28846
X14673Y31405
X7390Y24319
X7390Y23570
X6358Y23456
X3808Y24856
X3162Y25250
X5539Y27074
X6563Y31051
X3610Y22547
T04
X8978Y12679
T05
X9860Y14200
X9960Y15200
X9860Y16200
X9960Y17200
X9860Y18200
X9960Y19200
X9860Y20200
X9960Y21200
X9860Y22200
X9960Y23200
X9860Y24200
X9960Y25200
X9860Y26200
X9960Y27200
X9860Y28200
X9960Y29200
X24629Y28279
X24729Y27279
X24629Y26279
X24729Y25279
X24629Y24279
X24729Y23279
X24629Y22279
X24729Y21279
X24629Y20279
X24729Y19279
X24629Y18279
X24729Y17279
X24629Y16279
X24729Y15279
X24629Y14279
X23294Y11708
X22294Y11608
X21294Y11708
X20294Y11608
X19294Y11708
X18294Y11608
X17294Y11708
X16294Y11608
X15294Y11708
X14294Y11608
X13294Y11708
X12294Y11608
X11294Y11708
X17998Y5931
X18998Y5831
X19998Y5931
X21178Y5931
X22178Y5831
X23178Y5931
X24729Y29279
T06
X6327Y16999
X6327Y15857
X6327Y14716
X15717Y8334
X15717Y7193
X15717Y6051
T07
X5579Y12311
X2823Y12311
T08
X4714Y23092
X4714Y28262
T09
X3689Y8177
X4870Y6326
X6051Y8177
T10
X2626Y4633
X28217Y4633
X28217Y30224
X2626Y30224
M30
