G75*
%MOIN*%
%OFA0B0*%
%FSLAX25Y25*%
%IPPOS*%
%LPD*%
%AMOC8*
5,1,8,0,0,1.08239X$1,22.5*
%
%ADD10R,0.18110X0.03937*%
%ADD11R,0.13386X0.06299*%
%ADD12R,0.03937X0.04331*%
%ADD13R,0.06299X0.07098*%
%ADD14R,0.03937X0.06890*%
%ADD15R,0.06890X0.03937*%
%ADD16R,0.04331X0.03937*%
%ADD17R,0.04724X0.04724*%
%ADD18R,0.02756X0.03543*%
%ADD19R,0.05512X0.01378*%
%ADD20R,0.07480X0.07087*%
%ADD21R,0.07480X0.07480*%
%ADD22R,0.06299X0.02402*%
%ADD23R,0.10315X0.13819*%
%ADD24R,0.03543X0.02756*%
%ADD25R,0.07087X0.29528*%
%ADD26R,0.05906X0.05118*%
%ADD27R,0.11811X0.03543*%
%ADD28R,0.07874X0.11024*%
%ADD29R,0.08661X0.11024*%
%ADD30R,0.11024X0.11024*%
%ADD31R,0.07087X0.07874*%
%ADD32C,0.03150*%
%ADD33R,0.05906X0.01378*%
%ADD34R,0.05512X0.04528*%
D10*
X0034776Y0160343D03*
X0034776Y0168217D03*
D11*
X0014304Y0177665D03*
X0014304Y0150894D03*
D12*
X0029841Y0191209D03*
X0029841Y0197902D03*
X0072717Y0097713D03*
X0072717Y0091020D03*
X0081772Y0091020D03*
X0081772Y0097713D03*
X0164154Y0042398D03*
X0170847Y0042398D03*
X0196638Y0042382D03*
X0203331Y0042382D03*
X0232435Y0042582D03*
X0239127Y0042582D03*
X0280198Y0142201D03*
X0286890Y0142201D03*
X0286890Y0153028D03*
X0280198Y0153028D03*
X0280198Y0162870D03*
X0286890Y0162870D03*
X0286890Y0172713D03*
X0280198Y0172713D03*
X0280198Y0182555D03*
X0286890Y0182555D03*
X0286890Y0192398D03*
X0280198Y0192398D03*
X0280198Y0202240D03*
X0286890Y0202240D03*
X0286890Y0213067D03*
X0280198Y0213067D03*
D13*
X0273591Y0213067D03*
X0273591Y0202240D03*
X0273591Y0192398D03*
X0273591Y0182555D03*
X0273591Y0172713D03*
X0262394Y0172713D03*
X0262394Y0182555D03*
X0262394Y0192398D03*
X0262394Y0202240D03*
X0262394Y0213067D03*
X0262394Y0162870D03*
X0262394Y0153028D03*
X0262394Y0142201D03*
X0273591Y0142201D03*
X0273591Y0153028D03*
X0273591Y0162870D03*
X0225631Y0042398D03*
X0214435Y0042398D03*
X0189815Y0042398D03*
X0178618Y0042398D03*
X0156859Y0042398D03*
X0145662Y0042398D03*
X0126839Y0042398D03*
X0115642Y0042398D03*
D14*
X0125698Y0128783D03*
X0133572Y0128783D03*
X0141446Y0128783D03*
X0149320Y0128783D03*
X0157194Y0128783D03*
X0165068Y0128783D03*
X0172942Y0128783D03*
X0180816Y0128783D03*
X0188690Y0128783D03*
X0196564Y0128783D03*
X0204438Y0128783D03*
X0212312Y0128783D03*
X0220186Y0128783D03*
X0220186Y0307917D03*
X0212312Y0307917D03*
X0204438Y0307917D03*
X0196564Y0307917D03*
X0149320Y0307917D03*
X0141446Y0307917D03*
X0133572Y0307917D03*
X0125698Y0307917D03*
D15*
X0113887Y0292366D03*
X0113887Y0282366D03*
X0113887Y0272366D03*
X0113887Y0262366D03*
X0113887Y0252366D03*
X0113887Y0242366D03*
X0113887Y0232366D03*
X0113887Y0222366D03*
X0113887Y0212366D03*
X0113887Y0202366D03*
X0113887Y0192366D03*
X0113887Y0182366D03*
X0113887Y0172366D03*
X0113887Y0162366D03*
X0113887Y0152366D03*
X0113887Y0142366D03*
X0231997Y0142366D03*
X0231997Y0152366D03*
X0231997Y0162366D03*
X0231997Y0172366D03*
X0231997Y0182366D03*
X0231997Y0192366D03*
X0231997Y0202366D03*
X0231997Y0212366D03*
X0231997Y0222366D03*
X0231997Y0232366D03*
X0231997Y0242366D03*
X0231997Y0252366D03*
X0231997Y0262366D03*
X0231997Y0272366D03*
X0231997Y0282366D03*
X0231997Y0292366D03*
D16*
X0030922Y0184055D03*
X0024229Y0184055D03*
X0134528Y0054010D03*
X0134528Y0047317D03*
D17*
X0031686Y0225508D03*
X0023418Y0225508D03*
X0267796Y0273106D03*
X0276064Y0273106D03*
X0276064Y0281965D03*
X0267796Y0281965D03*
D18*
X0281182Y0281965D03*
X0286300Y0281965D03*
X0286300Y0273106D03*
X0281182Y0273106D03*
X0284475Y0226650D03*
X0289593Y0226650D03*
X0212875Y0088461D03*
X0207757Y0088461D03*
X0207725Y0081815D03*
X0212843Y0081815D03*
X0269064Y0080587D03*
X0274183Y0080587D03*
X0137522Y0086051D03*
X0132404Y0086051D03*
X0127245Y0086098D03*
X0122127Y0086098D03*
X0122137Y0080564D03*
X0127255Y0080564D03*
X0127241Y0090936D03*
X0127272Y0095851D03*
X0122154Y0095851D03*
X0122123Y0090936D03*
X0069438Y0212925D03*
X0064320Y0212925D03*
D19*
X0022709Y0209998D03*
X0022709Y0207439D03*
X0022709Y0204880D03*
X0022709Y0202320D03*
X0022709Y0199761D03*
D20*
X0012275Y0189131D03*
X0012275Y0220628D03*
D21*
X0012275Y0209880D03*
X0012275Y0199880D03*
D22*
X0092009Y0095961D03*
X0092009Y0090961D03*
X0092009Y0085961D03*
X0092009Y0080961D03*
X0113268Y0080961D03*
X0113268Y0085961D03*
X0113268Y0090961D03*
X0113268Y0095961D03*
D23*
X0102638Y0088461D03*
D24*
X0115827Y0069563D03*
X0115827Y0064445D03*
X0190906Y0089217D03*
X0196166Y0089209D03*
X0196166Y0094327D03*
X0190906Y0094335D03*
X0202150Y0088697D03*
X0202150Y0083579D03*
X0274686Y0086689D03*
X0274686Y0091807D03*
X0279804Y0080783D03*
X0279804Y0075665D03*
X0275867Y0228421D03*
X0280591Y0233146D03*
X0275867Y0233539D03*
X0280591Y0238264D03*
X0069075Y0226614D03*
X0064575Y0224614D03*
X0069075Y0221496D03*
X0064575Y0219496D03*
D25*
X0083175Y0057372D03*
X0105223Y0057372D03*
D26*
X0123426Y0062181D03*
X0123426Y0068874D03*
X0131766Y0068874D03*
X0131766Y0062181D03*
D27*
X0063720Y0242988D03*
X0063720Y0252831D03*
X0063720Y0260705D03*
X0063720Y0270547D03*
D28*
X0020355Y0137673D03*
X0012875Y0108539D03*
D29*
X0026261Y0108539D03*
X0031379Y0137673D03*
D30*
X0060906Y0108539D03*
X0077048Y0126059D03*
D31*
X0255296Y0068972D03*
X0255296Y0045350D03*
D32*
X0285520Y0080783D03*
X0285520Y0086689D03*
X0295205Y0086689D03*
X0295205Y0080783D03*
X0296205Y0238264D03*
X0296205Y0244169D03*
X0286520Y0244169D03*
X0286520Y0238264D03*
D33*
X0058705Y0218933D03*
X0058705Y0216413D03*
X0058705Y0213894D03*
X0058705Y0211374D03*
X0058705Y0208854D03*
X0058705Y0206335D03*
X0058705Y0203815D03*
X0058705Y0201295D03*
X0058705Y0198776D03*
X0058705Y0196256D03*
X0058705Y0193736D03*
X0058705Y0191217D03*
X0058705Y0188697D03*
X0058705Y0186177D03*
X0037446Y0186177D03*
X0037446Y0188697D03*
X0037446Y0191217D03*
X0037446Y0193736D03*
X0037446Y0196256D03*
X0037446Y0198776D03*
X0037446Y0201374D03*
X0037446Y0203815D03*
X0037446Y0206335D03*
X0037446Y0208854D03*
X0037446Y0211374D03*
X0037446Y0213894D03*
X0037446Y0216413D03*
X0037446Y0218933D03*
D34*
X0067575Y0188555D03*
X0067575Y0182256D03*
X0076237Y0182256D03*
X0076237Y0188555D03*
M02*
