G75*
%MOIN*%
%OFA0B0*%
%FSLAX25Y25*%
%IPPOS*%
%LPD*%
%AMOC8*
5,1,8,0,0,1.08239X$1,22.5*
%
%ADD10C,0.06800*%
%ADD11C,0.08200*%
%ADD12C,0.17800*%
%ADD13R,0.03300X0.05800*%
%ADD14R,0.04343X0.03950*%
%ADD15R,0.05800X0.03300*%
%ADD16R,0.03556X0.04343*%
%ADD17R,0.04737X0.05131*%
%ADD18R,0.03162X0.05131*%
%ADD19R,0.04343X0.03556*%
%ADD20C,0.13900*%
%ADD21C,0.07493*%
%ADD22R,0.07100X0.05400*%
%ADD23R,0.05400X0.07100*%
%ADD24R,0.02178X0.06312*%
%ADD25C,0.10544*%
%ADD26C,0.24422*%
%ADD27C,0.04900*%
D10*
X0095595Y0142004D02*
X0101595Y0142004D01*
X0102595Y0152004D02*
X0096595Y0152004D01*
X0095595Y0162004D02*
X0101595Y0162004D01*
X0102595Y0172004D02*
X0096595Y0172004D01*
X0095595Y0182004D02*
X0101595Y0182004D01*
X0102595Y0192004D02*
X0096595Y0192004D01*
X0095595Y0202004D02*
X0101595Y0202004D01*
X0102595Y0212004D02*
X0096595Y0212004D01*
X0095595Y0222004D02*
X0101595Y0222004D01*
X0102595Y0232004D02*
X0096595Y0232004D01*
X0095595Y0242004D02*
X0101595Y0242004D01*
X0102595Y0252004D02*
X0096595Y0252004D01*
X0095595Y0262004D02*
X0101595Y0262004D01*
X0102595Y0272004D02*
X0096595Y0272004D01*
X0095595Y0282004D02*
X0101595Y0282004D01*
X0102595Y0292004D02*
X0096595Y0292004D01*
X0243288Y0282791D02*
X0249288Y0282791D01*
X0250288Y0272791D02*
X0244288Y0272791D01*
X0243288Y0262791D02*
X0249288Y0262791D01*
X0250288Y0252791D02*
X0244288Y0252791D01*
X0243288Y0242791D02*
X0249288Y0242791D01*
X0250288Y0232791D02*
X0244288Y0232791D01*
X0243288Y0222791D02*
X0249288Y0222791D01*
X0250288Y0212791D02*
X0244288Y0212791D01*
X0243288Y0202791D02*
X0249288Y0202791D01*
X0250288Y0192791D02*
X0244288Y0192791D01*
X0243288Y0182791D02*
X0249288Y0182791D01*
X0250288Y0172791D02*
X0244288Y0172791D01*
X0243288Y0162791D02*
X0249288Y0162791D01*
X0250288Y0152791D02*
X0244288Y0152791D01*
X0243288Y0142791D02*
X0249288Y0142791D01*
X0250288Y0292791D02*
X0244288Y0292791D01*
D11*
X0232942Y0117079D03*
X0222942Y0116079D03*
X0212942Y0117079D03*
X0202942Y0116079D03*
X0192942Y0117079D03*
X0182942Y0116079D03*
X0172942Y0117079D03*
X0162942Y0116079D03*
X0152942Y0117079D03*
X0142942Y0116079D03*
X0132942Y0117079D03*
X0122942Y0116079D03*
X0112942Y0117079D03*
X0179975Y0059311D03*
X0189975Y0058311D03*
X0199975Y0059311D03*
X0211775Y0059311D03*
X0221775Y0058311D03*
X0231775Y0059311D03*
D12*
X0060512Y0081768D03*
X0048701Y0063264D03*
X0036890Y0081768D03*
D13*
X0183221Y0042382D03*
X0187221Y0042382D03*
X0218033Y0042582D03*
X0222033Y0042582D03*
X0258709Y0142594D03*
X0262709Y0142594D03*
X0262709Y0152634D03*
X0258709Y0152634D03*
X0258709Y0162673D03*
X0262709Y0162673D03*
X0262709Y0172713D03*
X0258709Y0172713D03*
X0258709Y0182752D03*
X0262709Y0182752D03*
X0262709Y0192594D03*
X0258709Y0192594D03*
X0258512Y0202634D03*
X0262512Y0202634D03*
X0262709Y0212673D03*
X0258709Y0212673D03*
X0258119Y0272811D03*
X0262119Y0272811D03*
X0261840Y0282767D03*
X0257840Y0282767D03*
D14*
X0268780Y0220154D03*
X0268780Y0212673D03*
X0277048Y0216413D03*
X0278426Y0210508D03*
X0278426Y0203028D03*
X0276457Y0196335D03*
X0278426Y0190823D03*
X0278426Y0183343D03*
X0276457Y0176453D03*
X0278426Y0171728D03*
X0278426Y0164248D03*
X0286694Y0167988D03*
X0275867Y0156374D03*
X0278426Y0150075D03*
X0278426Y0142594D03*
X0286694Y0146335D03*
X0267599Y0152634D03*
X0267599Y0160114D03*
X0268190Y0172713D03*
X0268190Y0180193D03*
X0268190Y0192594D03*
X0268190Y0200075D03*
X0286694Y0206768D03*
X0286694Y0187083D03*
X0232575Y0051686D03*
X0232575Y0044206D03*
X0240842Y0047946D03*
X0205308Y0047335D03*
X0197040Y0051075D03*
X0197040Y0043594D03*
D15*
X0223231Y0103510D03*
X0223231Y0107510D03*
X0053575Y0162555D03*
X0053575Y0166555D03*
D16*
X0051064Y0176724D03*
X0055985Y0179906D03*
X0061103Y0179906D03*
X0045946Y0176724D03*
X0020377Y0220602D03*
X0015259Y0220602D03*
D17*
X0030575Y0194902D03*
X0030575Y0188209D03*
X0091996Y0094601D03*
X0091996Y0087908D03*
D18*
X0050670Y0259720D03*
X0046930Y0259720D03*
X0043190Y0259720D03*
X0043190Y0270744D03*
X0046930Y0270744D03*
X0050670Y0270744D03*
D19*
X0037875Y0270744D03*
X0037875Y0265626D03*
X0043387Y0253740D03*
X0043387Y0248622D03*
X0046075Y0221614D03*
X0046075Y0216496D03*
X0037575Y0216496D03*
X0037575Y0221614D03*
X0036024Y0185882D03*
X0036024Y0180764D03*
D20*
X0047138Y0230918D03*
X0047138Y0282618D03*
D21*
X0055788Y0123106D03*
X0028229Y0123106D03*
D22*
X0040040Y0115327D03*
X0040040Y0109327D03*
X0040040Y0103327D03*
X0025075Y0236055D03*
X0025075Y0242055D03*
X0025075Y0248055D03*
X0279213Y0237374D03*
X0279213Y0231374D03*
X0279213Y0225374D03*
X0296339Y0225768D03*
X0296339Y0231768D03*
X0296339Y0237768D03*
X0294371Y0099382D03*
X0294371Y0093382D03*
X0294371Y0087382D03*
X0278426Y0087185D03*
X0278426Y0093185D03*
X0278426Y0099185D03*
D23*
X0215725Y0105390D03*
X0209725Y0105390D03*
X0203725Y0105390D03*
D24*
X0058475Y0186000D03*
X0055975Y0186000D03*
X0053475Y0186000D03*
X0050975Y0186000D03*
X0048475Y0186000D03*
X0045975Y0186000D03*
X0043475Y0186000D03*
X0040975Y0186000D03*
X0040975Y0207850D03*
X0043475Y0207850D03*
X0045975Y0207850D03*
X0048475Y0207850D03*
X0050975Y0207850D03*
X0053475Y0207850D03*
X0055975Y0207850D03*
X0058475Y0207850D03*
D25*
X0063272Y0169992D03*
X0063272Y0158575D03*
X0063272Y0147157D03*
X0157166Y0083343D03*
X0157166Y0071925D03*
X0157166Y0060508D03*
D26*
X0026261Y0046335D03*
X0282166Y0046335D03*
X0282166Y0302240D03*
X0026261Y0302240D03*
D27*
X0089775Y0126792D03*
M02*
