G75*
%MOIN*%
%OFA0B0*%
%FSLAX25Y25*%
%IPPOS*%
%LPD*%
%AMOC8*
5,1,8,0,0,1.08239X$1,22.5*
%
%ADD10R,0.18910X0.04737*%
%ADD11R,0.14186X0.07099*%
%ADD12C,0.06800*%
%ADD13C,0.08200*%
%ADD14R,0.04737X0.05131*%
%ADD15R,0.07099X0.07898*%
%ADD16R,0.04737X0.07690*%
%ADD17R,0.07690X0.04737*%
%ADD18R,0.05131X0.04737*%
%ADD19C,0.17800*%
%ADD20R,0.05524X0.05524*%
%ADD21R,0.03556X0.04343*%
%ADD22R,0.06312X0.02178*%
%ADD23R,0.08280X0.07887*%
%ADD24R,0.08280X0.08280*%
%ADD25R,0.07099X0.03202*%
%ADD26R,0.11115X0.14619*%
%ADD27R,0.04343X0.03556*%
%ADD28R,0.07887X0.30328*%
%ADD29R,0.06706X0.05918*%
%ADD30C,0.13900*%
%ADD31R,0.12611X0.04343*%
%ADD32C,0.07493*%
%ADD33R,0.08674X0.11824*%
%ADD34R,0.09461X0.11824*%
%ADD35R,0.11824X0.11824*%
%ADD36R,0.07887X0.08674*%
%ADD37C,0.03950*%
%ADD38R,0.05800X0.03300*%
%ADD39C,0.10544*%
%ADD40R,0.06706X0.02178*%
%ADD41R,0.06312X0.05328*%
%ADD42C,0.24422*%
%ADD43C,0.04900*%
D10*
X0034776Y0160343D03*
X0034776Y0168217D03*
D11*
X0014304Y0177665D03*
X0014304Y0150894D03*
D12*
X0095595Y0142004D02*
X0101595Y0142004D01*
X0102595Y0152004D02*
X0096595Y0152004D01*
X0095595Y0162004D02*
X0101595Y0162004D01*
X0102595Y0172004D02*
X0096595Y0172004D01*
X0095595Y0182004D02*
X0101595Y0182004D01*
X0102595Y0192004D02*
X0096595Y0192004D01*
X0095595Y0202004D02*
X0101595Y0202004D01*
X0102595Y0212004D02*
X0096595Y0212004D01*
X0095595Y0222004D02*
X0101595Y0222004D01*
X0102595Y0232004D02*
X0096595Y0232004D01*
X0095595Y0242004D02*
X0101595Y0242004D01*
X0102595Y0252004D02*
X0096595Y0252004D01*
X0095595Y0262004D02*
X0101595Y0262004D01*
X0102595Y0272004D02*
X0096595Y0272004D01*
X0095595Y0282004D02*
X0101595Y0282004D01*
X0102595Y0292004D02*
X0096595Y0292004D01*
X0243288Y0282791D02*
X0249288Y0282791D01*
X0250288Y0272791D02*
X0244288Y0272791D01*
X0243288Y0262791D02*
X0249288Y0262791D01*
X0250288Y0252791D02*
X0244288Y0252791D01*
X0243288Y0242791D02*
X0249288Y0242791D01*
X0250288Y0232791D02*
X0244288Y0232791D01*
X0243288Y0222791D02*
X0249288Y0222791D01*
X0250288Y0212791D02*
X0244288Y0212791D01*
X0243288Y0202791D02*
X0249288Y0202791D01*
X0250288Y0192791D02*
X0244288Y0192791D01*
X0243288Y0182791D02*
X0249288Y0182791D01*
X0250288Y0172791D02*
X0244288Y0172791D01*
X0243288Y0162791D02*
X0249288Y0162791D01*
X0250288Y0152791D02*
X0244288Y0152791D01*
X0243288Y0142791D02*
X0249288Y0142791D01*
X0250288Y0292791D02*
X0244288Y0292791D01*
D13*
X0232942Y0117079D03*
X0222942Y0116079D03*
X0212942Y0117079D03*
X0202942Y0116079D03*
X0192942Y0117079D03*
X0182942Y0116079D03*
X0172942Y0117079D03*
X0162942Y0116079D03*
X0152942Y0117079D03*
X0142942Y0116079D03*
X0132942Y0117079D03*
X0122942Y0116079D03*
X0112942Y0117079D03*
X0179975Y0059311D03*
X0189975Y0058311D03*
X0199975Y0059311D03*
X0211775Y0059311D03*
X0221775Y0058311D03*
X0231775Y0059311D03*
D14*
X0232435Y0042582D03*
X0239127Y0042582D03*
X0203331Y0042382D03*
X0196638Y0042382D03*
X0170847Y0042398D03*
X0164154Y0042398D03*
X0081772Y0091020D03*
X0081772Y0097713D03*
X0072717Y0097713D03*
X0072717Y0091020D03*
X0029841Y0191209D03*
X0029841Y0197902D03*
X0280198Y0202240D03*
X0286890Y0202240D03*
X0286890Y0192398D03*
X0280198Y0192398D03*
X0280198Y0182555D03*
X0286890Y0182555D03*
X0286890Y0172713D03*
X0280198Y0172713D03*
X0280198Y0162870D03*
X0286890Y0162870D03*
X0286890Y0153028D03*
X0280198Y0153028D03*
X0280198Y0142201D03*
X0286890Y0142201D03*
X0286890Y0213067D03*
X0280198Y0213067D03*
D15*
X0273591Y0213067D03*
X0273591Y0202240D03*
X0273591Y0192398D03*
X0273591Y0182555D03*
X0273591Y0172713D03*
X0262394Y0172713D03*
X0262394Y0182555D03*
X0262394Y0192398D03*
X0262394Y0202240D03*
X0262394Y0213067D03*
X0262394Y0162870D03*
X0262394Y0153028D03*
X0262394Y0142201D03*
X0273591Y0142201D03*
X0273591Y0153028D03*
X0273591Y0162870D03*
X0225631Y0042398D03*
X0214435Y0042398D03*
X0189815Y0042398D03*
X0178618Y0042398D03*
X0156859Y0042398D03*
X0145662Y0042398D03*
X0126839Y0042398D03*
X0115642Y0042398D03*
D16*
X0125698Y0128783D03*
X0133572Y0128783D03*
X0141446Y0128783D03*
X0149320Y0128783D03*
X0157194Y0128783D03*
X0165068Y0128783D03*
X0172942Y0128783D03*
X0180816Y0128783D03*
X0188690Y0128783D03*
X0196564Y0128783D03*
X0204438Y0128783D03*
X0212312Y0128783D03*
X0220186Y0128783D03*
X0220186Y0307917D03*
X0212312Y0307917D03*
X0204438Y0307917D03*
X0196564Y0307917D03*
X0149320Y0307917D03*
X0141446Y0307917D03*
X0133572Y0307917D03*
X0125698Y0307917D03*
D17*
X0113887Y0292366D03*
X0113887Y0282366D03*
X0113887Y0272366D03*
X0113887Y0262366D03*
X0113887Y0252366D03*
X0113887Y0242366D03*
X0113887Y0232366D03*
X0113887Y0222366D03*
X0113887Y0212366D03*
X0113887Y0202366D03*
X0113887Y0192366D03*
X0113887Y0182366D03*
X0113887Y0172366D03*
X0113887Y0162366D03*
X0113887Y0152366D03*
X0113887Y0142366D03*
X0231997Y0142366D03*
X0231997Y0152366D03*
X0231997Y0162366D03*
X0231997Y0172366D03*
X0231997Y0182366D03*
X0231997Y0192366D03*
X0231997Y0202366D03*
X0231997Y0212366D03*
X0231997Y0222366D03*
X0231997Y0232366D03*
X0231997Y0242366D03*
X0231997Y0252366D03*
X0231997Y0262366D03*
X0231997Y0272366D03*
X0231997Y0282366D03*
X0231997Y0292366D03*
D18*
X0030922Y0184055D03*
X0024229Y0184055D03*
X0134528Y0054010D03*
X0134528Y0047317D03*
D19*
X0060512Y0081768D03*
X0048701Y0063264D03*
X0036890Y0081768D03*
D20*
X0031686Y0225508D03*
X0023418Y0225508D03*
X0267796Y0273106D03*
X0276064Y0273106D03*
X0276064Y0281965D03*
X0267796Y0281965D03*
D21*
X0281182Y0281965D03*
X0286300Y0281965D03*
X0286300Y0273106D03*
X0281182Y0273106D03*
X0284475Y0226650D03*
X0289593Y0226650D03*
X0212875Y0088461D03*
X0207757Y0088461D03*
X0207725Y0081815D03*
X0212843Y0081815D03*
X0269064Y0080587D03*
X0274183Y0080587D03*
X0137522Y0086051D03*
X0132404Y0086051D03*
X0127245Y0086098D03*
X0122127Y0086098D03*
X0122137Y0080564D03*
X0127255Y0080564D03*
X0127241Y0090936D03*
X0127272Y0095851D03*
X0122154Y0095851D03*
X0122123Y0090936D03*
X0069438Y0212925D03*
X0064320Y0212925D03*
D22*
X0022709Y0209998D03*
X0022709Y0207439D03*
X0022709Y0204880D03*
X0022709Y0202320D03*
X0022709Y0199761D03*
D23*
X0012275Y0189131D03*
X0012275Y0220628D03*
D24*
X0012275Y0209880D03*
X0012275Y0199880D03*
D25*
X0092009Y0095961D03*
X0092009Y0090961D03*
X0092009Y0085961D03*
X0092009Y0080961D03*
X0113268Y0080961D03*
X0113268Y0085961D03*
X0113268Y0090961D03*
X0113268Y0095961D03*
D26*
X0102638Y0088461D03*
D27*
X0115827Y0069563D03*
X0115827Y0064445D03*
X0190906Y0089217D03*
X0196166Y0089209D03*
X0196166Y0094327D03*
X0190906Y0094335D03*
X0202150Y0088697D03*
X0202150Y0083579D03*
X0274686Y0086689D03*
X0274686Y0091807D03*
X0279804Y0080783D03*
X0279804Y0075665D03*
X0275867Y0228421D03*
X0280591Y0233146D03*
X0275867Y0233539D03*
X0280591Y0238264D03*
X0069075Y0226614D03*
X0064575Y0224614D03*
X0069075Y0221496D03*
X0064575Y0219496D03*
D28*
X0083175Y0057372D03*
X0105223Y0057372D03*
D29*
X0123426Y0062181D03*
X0123426Y0068874D03*
X0131766Y0068874D03*
X0131766Y0062181D03*
D30*
X0047138Y0230918D03*
X0047138Y0282618D03*
D31*
X0063720Y0270547D03*
X0063720Y0260705D03*
X0063720Y0252831D03*
X0063720Y0242988D03*
D32*
X0055788Y0123106D03*
X0028229Y0123106D03*
D33*
X0020355Y0137673D03*
X0012875Y0108539D03*
D34*
X0026261Y0108539D03*
X0031379Y0137673D03*
D35*
X0060906Y0108539D03*
X0077048Y0126059D03*
D36*
X0255296Y0068972D03*
X0255296Y0045350D03*
D37*
X0285520Y0080783D03*
X0285520Y0086689D03*
X0295205Y0086689D03*
X0295205Y0080783D03*
X0296205Y0238264D03*
X0296205Y0244169D03*
X0286520Y0244169D03*
X0286520Y0238264D03*
D38*
X0082541Y0302303D03*
X0082541Y0306303D03*
X0074548Y0306203D03*
X0074548Y0302203D03*
X0065375Y0302192D03*
X0065375Y0306192D03*
D39*
X0063272Y0169992D03*
X0063272Y0158575D03*
X0063272Y0147157D03*
X0157166Y0083343D03*
X0157166Y0071925D03*
X0157166Y0060508D03*
D40*
X0058705Y0186177D03*
X0058705Y0188697D03*
X0058705Y0191217D03*
X0058705Y0193736D03*
X0058705Y0196256D03*
X0058705Y0198776D03*
X0058705Y0201295D03*
X0058705Y0203815D03*
X0058705Y0206335D03*
X0058705Y0208854D03*
X0058705Y0211374D03*
X0058705Y0213894D03*
X0058705Y0216413D03*
X0058705Y0218933D03*
X0037446Y0218933D03*
X0037446Y0216413D03*
X0037446Y0213894D03*
X0037446Y0211374D03*
X0037446Y0208854D03*
X0037446Y0206335D03*
X0037446Y0203815D03*
X0037446Y0201374D03*
X0037446Y0198776D03*
X0037446Y0196256D03*
X0037446Y0193736D03*
X0037446Y0191217D03*
X0037446Y0188697D03*
X0037446Y0186177D03*
D41*
X0067575Y0188555D03*
X0067575Y0182256D03*
X0076237Y0182256D03*
X0076237Y0188555D03*
D42*
X0026261Y0046335D03*
X0282166Y0046335D03*
X0282166Y0302240D03*
X0026261Y0302240D03*
D43*
X0089775Y0126792D03*
M02*
